<svg xmlns="http://www.w3.org/2000/svg" viewBox="0 0 29.94 32.59"><defs><style>.cls-1{fill:#22676a;}</style></defs><title>icon-power</title><g id="Layer_2" data-name="Layer 2"><g id="Layer_1-2" data-name="Layer 1"><path class="cls-1" d="M10.69,31.45l4.2-12-11,0A.83.83,0,0,1,3,18.63a.86.86,0,0,1,.2-.54h0L12.92,6.2c1.6-1.93,3.2-3.89,4.83-5.89A.85.85,0,0,1,18.92.17a.92.92,0,0,1,.26.94L15,13.1l11,0a.83.83,0,0,1,.83.83.81.81,0,0,1-.17.5h0c-3.09,4-6.36,7.93-9.62,11.89l-4.9,5.93a.83.83,0,0,1-1.16.13.85.85,0,0,1-.27-1"/><path class="cls-1" d="M8.63,27.72A.83.83,0,0,1,9,28.85a.82.82,0,0,1-1.13.33A14.83,14.83,0,0,1,2.1,23.69,14.92,14.92,0,0,1,11.52,1.54a.84.84,0,0,1,.37,1.63A13.23,13.23,0,0,0,8.63,27.72"/><path class="cls-1" d="M21.42,4.47a.83.83,0,0,1-.34-1.13A.82.82,0,0,1,22.21,3a14.87,14.87,0,0,1,4.43,22.38,15,15,0,0,1-8.39,5.23A.84.84,0,0,1,17.88,29,13.22,13.22,0,0,0,21.42,4.47"/></g></g></svg>