<svg xmlns="http://www.w3.org/2000/svg" viewBox="0 0 34.27 22.54"><defs><style>.cls-1{fill:#22676a;}</style></defs><title>icon-hash</title><g id="Layer_2" data-name="Layer 2"><g id="Layer_1-2" data-name="Layer 1"><path class="cls-1" d="M34.27,20.88c0-.08,0-.15,0-.23v-.31h0v-.06h0v-.1l0-.38v-.22l0-.24,0-.25,0-.12v-.11c0-.3-.08-.59-.13-.87s-.05-.28-.08-.42,0-.26-.08-.39-.11-.49-.17-.72l0-.16,0-.15c0-.1,0-.2-.08-.29s0-.17-.07-.24,0-.15-.07-.21l-.07-.24a.18.18,0,0,0-.22-.11l-5.79,1.65a.17.17,0,0,0-.13.2l0,.12,0,.14c0,.05,0,.11,0,.17l0,.2a.36.36,0,0,1,0,.1v.11c0,.15,0,.32,0,.49l0,.26a2.53,2.53,0,0,0,0,.28c0,.19,0,.39,0,.58v.56c0,.13,0,.26,0,.38v.1h0v-.06h0v.2l0,.15v.14c0,.1,0,.19,0,.29l0,.27,0,.26c0,.08,0,.16-.05.24s0,.15-.05.22,0,.15,0,.21l0,.1,0,.07v.05h7.09a.19.19,0,0,0,.18-.17h0c0-.14,0-.27,0-.41s0-.28,0-.42,0-.29,0-.44v-.22Z"/><path class="cls-1" d="M32.43,13.44a.18.18,0,0,0,.09-.24l-.07-.15-.08-.17c0-.07-.08-.16-.12-.25l-.14-.28L32,12.21,32,12.06l-.17-.31-.19-.32-.1-.17-.11-.17-.22-.35c-.16-.23-.31-.48-.49-.71l-.13-.18-.06-.09-.07-.09-.28-.35c-.09-.12-.18-.24-.28-.35s-.09-.12-.14-.17l-.15-.17-.14-.16-.15-.16L29,8a4,4,0,0,0-.29-.29l-.28-.28-.27-.25L27.89,7a2.25,2.25,0,0,0-.24-.21l-.22-.19-.2-.16-.17-.13-.18-.14a.18.18,0,0,0-.25,0L23.52,9.91a.18.18,0,0,0,0,.24l.09.09.11.11.12.13.14.14.15.17a1.46,1.46,0,0,1,.16.19l.17.2a1.73,1.73,0,0,1,.17.21l.18.23.18.24.08.12.09.13.08.13.09.13.16.26c.06.09.11.18.16.27l0,.06,0,.07.07.14c.1.17.19.36.28.53l.12.25.05.13.06.12.1.24.09.22,0,.11a.47.47,0,0,1,0,.09l.06.17.05.15.06.17.05.15a.17.17,0,0,0,.23.1Z"/><path class="cls-1" d="M16.59,6.71l.15,0,.19,0,.2,0,.2,0,2-4L19,2.78l-.2,0-.18,0-.36,0-.34,0-.31,0-.28,0h-.68a.18.18,0,0,0-.18.17L16.3,6.51a.19.19,0,0,0,.15.19Z"/><path class="cls-1" d="M21.86,8.77l.15.11.14.09a.22.22,0,0,0,.07.06l.07.05.12.09a.18.18,0,0,0,.26,0l2.56-3.9A.18.18,0,0,0,25.17,5L25,4.89l-.07,0-.09,0-.24-.13-.27-.15-.28-.14-.31-.15-.33-.15-.36-.16-.38-.15-.09,0L21.5,8.53l.18.12.18.12Z"/><path class="cls-1" d="M13.15,6.69l.14,0h.15l.27,0,.26,0h.95a.17.17,0,0,0,.17-.19l-.23-3.52a.19.19,0,0,0-.2-.17l-.16,0-.18,0-.26,0-.29,0-.15,0-.15,0L13.14,3,12.79,3l-.18,0-.18,0-.38.1-.39.11-.2.06-.19.07-.2.07-.2.07-.4.15-.39.16L9.89,4l-.19.08-.19.09-.18.09L9,4.45l-.34.18c-.11.07-.22.12-.32.19L8,5l-.28.18-.25.16-.22.15-.2.14-.16.12-.17.12a.17.17,0,0,0,0,.24L8.15,8.25a.18.18,0,0,0,.23.06l.13-.08.15-.08.17-.09L9,8l.22-.1.24-.12.26-.11L10,7.52l.29-.12.3-.11.16,0,.16,0,.15-.05.16,0L11.57,7l.32-.08.16,0,.16,0,.16,0,.16,0,.32,0,.3,0Z"/><path class="cls-1" d="M3.18,9.47l-.11.17L3,9.8a1.63,1.63,0,0,0-.11.17l-.23.34-.21.34,0,.09-.05.09L2.2,11c-.13.23-.25.47-.37.69s-.11.22-.16.33l-.08.16-.07.16c-.05.11-.1.21-.14.31l-.12.29c0,.09-.08.18-.11.27s-.06.17-.09.24L1,13.67l-.06.18L.85,14a.18.18,0,0,0,.11.22l1.36.52a.17.17,0,0,0,.22-.09l.07-.15.08-.15.09-.18A2.12,2.12,0,0,1,2.89,14L3,13.78l.14-.24.15-.26.08-.13L3.47,13l.17-.28c.13-.18.26-.37.4-.55l.1-.14L4.19,12l.06-.07.22-.28.22-.27.12-.13.11-.13L5,11l.12-.13.23-.24a2.39,2.39,0,0,1,.23-.22,1.45,1.45,0,0,1,.22-.21l.21-.2.21-.18.19-.16.17-.13.14-.12.08-.05.07-.06L7,9.19a.18.18,0,0,0,0-.26L5.51,7.12a.18.18,0,0,0-.26,0l-.11.11-.06.06L5,7.34l-.17.18-.19.2c-.07.06-.13.14-.2.21l-.22.24L4,8.43a3.11,3.11,0,0,0-.23.28L3.53,9l-.23.31-.12.16Z"/><path class="cls-1" d="M.37,15.84l0,.15,0,.18c0,.07,0,.15,0,.23s0,.16-.05.26a.78.78,0,0,1,0,.14l0,.14c0,.2-.06.41-.08.63l0,.35,0,.36c0,.25,0,.5,0,.76v1.37l0,.19v.19l0,.19,0,.19v.18l0,.36.06.34c0,.11,0,.21.05.32v0a.17.17,0,0,0,.17.15H.93a.19.19,0,0,0,.18-.19v-.08c0-.1,0-.21,0-.31v-.33c0-.11,0-.22,0-.34v-1h0v-.09l0-.36v-.18l0-.19,0-.18v-.09l0-.09c0-.23.06-.47.11-.69l.06-.33.07-.31c0-.2.1-.39.14-.57l0-.13,0-.12.07-.21c0-.07,0-.14.05-.2l.06-.17,0-.15A.18.18,0,0,0,1.79,16L.59,15.7a.17.17,0,0,0-.22.14Z"/><path class="cls-1" d="M14,22.07a2.79,2.79,0,0,0,1.22.28,2.76,2.76,0,0,0,2.48-1.55,2.71,2.71,0,0,0,.22-.6L20.68,8.05l1.07-4.62L22.41.56A.45.45,0,0,0,22,0a.43.43,0,0,0-.4.26L20.21,3l-2,4.05L12.7,18.36A2.78,2.78,0,0,0,14,22.07Zm1.32-3.92a1.36,1.36,0,1,1-1.36,1.36,1.36,1.36,0,0,1,1.36-1.36Z"/></g></g></svg>