<svg xmlns="http://www.w3.org/2000/svg" viewBox="0 0 30.21 30.21"><defs><style>.cls-1{fill:#22676a;}</style></defs><title>icon-algorithm</title><g id="Layer_2" data-name="Layer 2"><g id="Layer_1-2" data-name="Layer 1"><path class="cls-1" d="M17.05,30.21H13.16a1.11,1.11,0,0,1-.74-.84c-.11-.38-.25-.75-.36-1.12a.4.4,0,0,0-.3-.31,13.47,13.47,0,0,1-3.4-1.4.4.4,0,0,0-.34,0c-.39.17-.77.38-1.16.57a.92.92,0,0,1-1.23-.19L3.3,24.57a.91.91,0,0,1-.2-1.2c.19-.4.4-.79.59-1.19a.37.37,0,0,0,0-.31,14.45,14.45,0,0,1-1.43-3.45A.43.43,0,0,0,2,18.18C1.6,18,1.17,17.9.75,17.76a.94.94,0,0,1-.75-1V13.47a.94.94,0,0,1,.76-1c.41-.14.82-.26,1.22-.41a.46.46,0,0,0,.27-.26A14.38,14.38,0,0,1,3.67,8.37a.48.48,0,0,0,0-.37c-.18-.39-.38-.77-.57-1.16a.9.9,0,0,1,.2-1.2c.77-.79,1.55-1.56,2.33-2.34a.92.92,0,0,1,1.21-.2c.38.19.76.39,1.16.57a.41.41,0,0,0,.36,0,14.62,14.62,0,0,1,3.42-1.42A.51.51,0,0,0,12,2c.15-.42.28-.84.42-1.26a.93.93,0,0,1,1-.73h3.33a.91.91,0,0,1,1,.73c.14.41.26.84.42,1.25a.51.51,0,0,0,.28.28,14.38,14.38,0,0,1,3.39,1.41.47.47,0,0,0,.37,0c.39-.17.77-.38,1.16-.57a.91.91,0,0,1,1.2.2l2.34,2.33a.92.92,0,0,1,.19,1.23c-.19.39-.4.77-.57,1.16a.4.4,0,0,0,0,.34,13.55,13.55,0,0,1,1.4,3.39.37.37,0,0,0,.3.31c.38.11.75.25,1.13.36a1.11,1.11,0,0,1,.84.74v3.89a1.16,1.16,0,0,1-.87.76,11.22,11.22,0,0,0-1.12.36.51.51,0,0,0-.26.26,14.62,14.62,0,0,1-1.42,3.42.4.4,0,0,0,0,.34c.18.4.39.79.58,1.19a.91.91,0,0,1-.2,1.2c-.78.78-1.55,1.56-2.33,2.33a.92.92,0,0,1-1.21.2c-.38-.19-.76-.39-1.16-.57a.45.45,0,0,0-.36,0A14.62,14.62,0,0,1,18.43,28a.51.51,0,0,0-.26.26c-.14.37-.26.74-.37,1.12A1.13,1.13,0,0,1,17.05,30.21ZM26.4,15.1A11.3,11.3,0,1,0,15.1,26.4,11.33,11.33,0,0,0,26.4,15.1Z"/><path class="cls-1" d="M14.23,19.53a.9.9,0,0,0,.87-.74c.57-2.31,1.15-4.61,1.72-6.92a.88.88,0,1,0-1.71-.42l-.51,2c-.41,1.65-.83,3.29-1.23,4.94A.88.88,0,0,0,14.23,19.53Z"/><path class="cls-1" d="M11,15.12c.42-.42.8-.77,1.16-1.15a.85.85,0,0,0,0-1.26.87.87,0,0,0-1.25,0L9.18,14.47a.86.86,0,0,0,0,1.25c.58.61,1.18,1.2,1.79,1.79a.81.81,0,0,0,.81.22.87.87,0,0,0,.42-1.47C11.83,15.88,11.43,15.52,11,15.12Z"/><path class="cls-1" d="M19.19,15.1l-.6.58c-.19.19-.39.37-.57.57a.88.88,0,0,0,1.24,1.25q.9-.87,1.77-1.77a.83.83,0,0,0,0-1.24c-.57-.61-1.17-1.19-1.76-1.78a.86.86,0,0,0-.85-.23A.88.88,0,0,0,18,14C18.39,14.34,18.78,14.7,19.19,15.1Z"/></g></g></svg>