<svg xmlns="http://www.w3.org/2000/svg" viewBox="0 0 250.25 103.53"><defs><style>.cls-1{fill:#fff;}</style></defs><title>login2</title><g id="Layer_2" data-name="Layer 2"><g id="Layer_1-2" data-name="Layer 1"><path class="cls-1" d="M189.58,99.34l.84.85a11.4,11.4,0,0,0,16.12,0l40.37-40.37a11.4,11.4,0,0,0,0-16.12L206.54,3.34a11.4,11.4,0,0,0-16.12,0l-.84.85a11.39,11.39,0,0,0,0,16.12L209,39.76H11.4A11.4,11.4,0,0,0,0,51.16v1.21A11.39,11.39,0,0,0,11.4,63.76H209L189.57,83.22A11.39,11.39,0,0,0,189.58,99.34Z"/></g></g></svg>