<svg xmlns="http://www.w3.org/2000/svg" viewBox="0 0 257.12 276"><defs><style>.cls-1{fill:#fff;}</style></defs><title>login1</title><g id="Layer_2" data-name="Layer 2"><g id="Layer_1-2" data-name="Layer 1"><path class="cls-1" d="M119.12,0A137.93,137.93,0,0,0,1.94,65.1a12,12,0,0,0,4.8,17.15h0A12,12,0,0,0,22.3,77.77,113.34,113.34,0,0,1,118.65,24C181,23.75,232.4,74.36,233.11,136.67A114,114,0,0,1,22.23,198.11a11.82,11.82,0,0,0-15.3-4.46l-.42.21A11.8,11.8,0,0,0,1.8,210.68,137.95,137.95,0,0,0,119.12,276c76.1,0,138-61.91,138-138S195.22,0,119.12,0Z"/></g></g></svg>