<svg xmlns="http://www.w3.org/2000/svg" viewBox="0 0 82.33 63.6"><defs><style>.cls-1{fill:#00d6ab;}.cls-2{fill:#fff;}</style></defs><title>logo-mark</title><g id="Layer_2" data-name="Layer 2"><g id="Layer_1-2" data-name="Layer 1"><path class="cls-1" d="M31.8,63.6A31.8,31.8,0,1,1,59,15.29a7,7,0,0,1-12,7.28,17.8,17.8,0,1,0-.32,19,7,7,0,0,1,11.71,7.68A31.75,31.75,0,0,1,31.8,63.6Z"/><path class="cls-2" d="M71.18,21.31a11.11,11.11,0,0,0-7.86,3.24l-.13.13-.51.57c-.16.19-.31.38-.46.58l-.13.17c-3.55,5-5.36,5.8-10.09,5.8s-7.77-1.32-11.1-6l-.18-.23-.28-.35c-.19-.22-.38-.43-.58-.63l-.07-.08c-.22-.22-.45-.42-.67-.61L39,23.82l-.44-.34a11.18,11.18,0,0,0-5.92-2.14c-.42,0-.68,0-.68,0a11.16,11.16,0,1,0,9.35,17.22c3.18-4.21,6.17-5.45,10.72-5.45s6.42.75,9.75,5.33a11.15,11.15,0,1,0,9.43-17.1Z"/></g></g></svg>