<svg xmlns="http://www.w3.org/2000/svg" viewBox="0 0 111.25 46.47"><defs><style>.cls-1{fill:#00d6ab;}.cls-2{fill:#fff;}</style></defs><title>logo-type</title><g id="Layer_2" data-name="Layer 2"><g id="Layer_1-2" data-name="Layer 1"><rect class="cls-1" x="87.7" y="0.89" width="6" height="39.54"/><path class="cls-1" d="M32.1,25.36A12.59,12.59,0,1,1,42.86,6.24L37.73,9.36a6.59,6.59,0,1,0-.12,7l5,3.29A12.55,12.55,0,0,1,32.1,25.36Z"/><path class="cls-1" d="M8.81,24.83c-.35,0-.72,0-1.09,0C5.47,24.64,1.57,22.77,0,22l2.71-5.35A26.53,26.53,0,0,0,8.12,18.8c3.4.23,3.58-1,3.64-1.47.15-1.1-2.4-1.94-2.87-2C2.91,13.89,1.12,10,1,7.9.84,4.18,2.47,2.27,3.86,1.31c4.31-3,11.49-.06,12.89.55L14.34,7.35l1.2-2.74-1.2,2.75c-2.51-1.09-6.08-1.8-7.08-1.1C7.08,6.37,7,6.83,7,7.44c.09.26.61,1.38,3.24,2,4,.87,8.12,4,7.47,8.7C17.13,22.38,13.83,24.83,8.81,24.83ZM7,7.49A.41.41,0,0,1,7,7.6.54.54,0,0,0,7,7.49Z"/><path class="cls-2" d="M55.41,24.31A11.78,11.78,0,1,1,67.18,12.53,11.8,11.8,0,0,1,55.41,24.31Zm0-17.55a5.78,5.78,0,1,0,5.77,5.77A5.79,5.79,0,0,0,55.41,6.76Z"/><path class="cls-1" d="M99.47,24.31a11.78,11.78,0,1,1,11.78-11.78A11.79,11.79,0,0,1,99.47,24.31Zm0-17.55a5.78,5.78,0,1,0,5.78,5.77A5.78,5.78,0,0,0,99.47,6.76Z"/><path class="cls-2" d="M73.63,24.31A11.78,11.78,0,1,1,85.4,12.53,11.79,11.79,0,0,1,73.63,24.31Zm0-17.55a5.78,5.78,0,1,0,5.77,5.77A5.78,5.78,0,0,0,73.63,6.76Z"/><path class="cls-2" d="M37,41.15H34.28v-6.6a2.48,2.48,0,0,0-.57-1.77,1.84,1.84,0,0,0-1.39-.6,3.58,3.58,0,0,0-1.19.2A3.54,3.54,0,0,0,30,33a6.34,6.34,0,0,1,.17,1.51v6.6H27.45v-6.6a2.48,2.48,0,0,0-.57-1.77,1.79,1.79,0,0,0-1.36-.6,2.59,2.59,0,0,0-1.11.22,4.07,4.07,0,0,0-1,.7v8H20.66v-11h2.75v.82a4,4,0,0,1,1.21-.8,3.45,3.45,0,0,1,1.43-.31,4,4,0,0,1,1.62.36,4.27,4.27,0,0,1,1.42,1,5.11,5.11,0,0,1,3.68-1.41,5,5,0,0,1,1.64.26,3.48,3.48,0,0,1,1.35.82,4.13,4.13,0,0,1,.91,1.43,5.7,5.7,0,0,1,.35,2.1Z"/><path class="cls-2" d="M42,28.16H39.11V25.3H42Zm0,13H39.15V30.08h2.79Z"/><path class="cls-2" d="M54.53,41.15H51.77v-6.6a2.8,2.8,0,0,0-.18-1,2.08,2.08,0,0,0-.49-.75,2.13,2.13,0,0,0-.7-.44,2.48,2.48,0,0,0-.82-.14,3.66,3.66,0,0,0-1.25.22,3.2,3.2,0,0,0-1.11.7v8H44.47v-11h2.75l0,.82a3,3,0,0,1,.61-.46,4.35,4.35,0,0,1,.76-.35,4.52,4.52,0,0,1,.8-.22,3.74,3.74,0,0,1,.8-.08,4.86,4.86,0,0,1,1.61.27,3.87,3.87,0,0,1,1.38.82,4,4,0,0,1,1,1.43,5.31,5.31,0,0,1,.37,2.09Z"/><path class="cls-2" d="M59.5,28.16H56.63V25.3H59.5Zm0,13H56.67V30.08h2.79Z"/><path class="cls-2" d="M72,41.15H69.29v-6.6a2.8,2.8,0,0,0-.18-1,2,2,0,0,0-1.19-1.19,2.52,2.52,0,0,0-.82-.14,3.62,3.62,0,0,0-1.25.22,3.11,3.11,0,0,0-1.11.7v8H62v-11h2.75l0,.82a2.71,2.71,0,0,1,.61-.46,4,4,0,0,1,.76-.35,4.3,4.3,0,0,1,.8-.22,3.65,3.65,0,0,1,.79-.08,4.92,4.92,0,0,1,1.62.27,3.85,3.85,0,0,1,2.34,2.25A5.5,5.5,0,0,1,72,34.42Z"/><path class="cls-2" d="M84.3,32.28H83.14a4,4,0,0,1,.16,3.28,4.38,4.38,0,0,1-.8,1.27,4.5,4.5,0,0,1-1.25,1,4.86,4.86,0,0,1-1.65.54,2.54,2.54,0,0,0-.95.29c-.21.14-.31.27-.31.41s.1.25.31.37a2.68,2.68,0,0,0,.95.23,6.45,6.45,0,0,1,3.32,1.07A2.77,2.77,0,0,1,84.09,43a2.73,2.73,0,0,1-.36,1.38,3.36,3.36,0,0,1-1,1.09,5.18,5.18,0,0,1-1.63.71,8.65,8.65,0,0,1-2.13.25,8.9,8.9,0,0,1-2.16-.25,5.43,5.43,0,0,1-1.65-.7,3.17,3.17,0,0,1-1.05-1.08,2.78,2.78,0,0,1-.36-1.4,2.92,2.92,0,0,1,.65-1.92A4.07,4.07,0,0,1,76.5,40a1.26,1.26,0,0,1-.66-.47.85.85,0,0,1-.18-.6.94.94,0,0,1,.25-.58,1.51,1.51,0,0,1,.68-.43,4.53,4.53,0,0,1-1-.59,5.51,5.51,0,0,1-.82-.85,4.07,4.07,0,0,1-.58-1.07,3.84,3.84,0,0,1,.18-2.94,4.3,4.3,0,0,1,1-1.37A4.89,4.89,0,0,1,77,30.14a5,5,0,0,1,1.82-.33,5,5,0,0,1,1.74.29H84.3ZM81.34,43a1,1,0,0,0-.68-1,4.14,4.14,0,0,0-1.74-.31,4.07,4.07,0,0,0-1.8.33,1,1,0,0,0-.66.95,1,1,0,0,0,.69,1,4.21,4.21,0,0,0,1.77.32A4.11,4.11,0,0,0,80.68,44,1,1,0,0,0,81.34,43Zm-.52-8.93a1.85,1.85,0,0,0-.16-.78,2,2,0,0,0-.44-.64,2,2,0,0,0-1.43-.61,1.84,1.84,0,0,0-.77.17,2.15,2.15,0,0,0-.64.44,2,2,0,0,0-.43.64,1.85,1.85,0,0,0-.16.78,2,2,0,0,0,.16.8,2.16,2.16,0,0,0,.43.65A2.35,2.35,0,0,0,78,36a2,2,0,0,0,.77.16,2,2,0,0,0,1.43-.6,2.2,2.2,0,0,0,.44-.65A2,2,0,0,0,80.82,34.11Z"/></g></g></svg>