<svg xmlns="http://www.w3.org/2000/svg" viewBox="0 0 40.38 31.34"><defs><style>.cls-1{fill:#fff;}.cls-2{fill:#ff5f00;}.cls-3{fill:#eb001b;}.cls-4{fill:#f79e1b;}</style></defs><title>mastercard-logo</title><g id="Layer_2" data-name="Layer 2"><g id="Layer_1-2" data-name="Layer 1"><path class="cls-1" d="M7.35,31.27V29.19A1.22,1.22,0,0,0,6,27.87a1.37,1.37,0,0,0-1.18.59,1.21,1.21,0,0,0-1.11-.59,1.12,1.12,0,0,0-1,.49v-.42H2v3.33h.73V29.43c0-.59.31-.87.8-.87s.73.31.73.87v1.84H5V29.43a.77.77,0,0,1,.8-.87c.49,0,.73.31.73.87v1.84Zm10.78-3.33H17v-1h-.73v1h-.66v.66h.66v1.53c0,.76.31,1.21,1.14,1.21a1.94,1.94,0,0,0,.9-.24l-.21-.62a1.14,1.14,0,0,1-.62.17c-.35,0-.49-.21-.49-.55V28.6h1.18v-.66Zm6.17-.07a1,1,0,0,0-.87.49v-.42h-.73v3.33h.73V29.4c0-.55.24-.87.69-.87a2,2,0,0,1,.45.07l.21-.69a2.29,2.29,0,0,0-.49,0ZM15,28.22a2.38,2.38,0,0,0-1.35-.35c-.83,0-1.39.42-1.39,1.07s.42.87,1.14,1l.35,0c.38.07.59.17.59.35s-.28.42-.76.42a1.91,1.91,0,0,1-1.11-.35l-.35.55a2.45,2.45,0,0,0,1.42.42c1,0,1.53-.45,1.53-1.07s-.45-.9-1.14-1l-.35,0c-.31,0-.55-.1-.55-.31s.24-.38.62-.38a2.5,2.5,0,0,1,1,.28l.31-.59Zm19.34-.35a1,1,0,0,0-.87.49v-.42h-.73v3.33h.73V29.4c0-.55.24-.87.69-.87a2,2,0,0,1,.45.07l.21-.69a2.29,2.29,0,0,0-.49,0ZM25,29.6a1.67,1.67,0,0,0,1.77,1.73A1.72,1.72,0,0,0,28,31l-.35-.59a1.4,1.4,0,0,1-.87.31,1,1,0,0,1-1-1.07,1,1,0,0,1,1-1.07,1.4,1.4,0,0,1,.87.31l.35-.59a1.72,1.72,0,0,0-1.18-.38A1.67,1.67,0,0,0,25,29.6Zm6.73,0V27.94H31v.42a1.25,1.25,0,0,0-1-.49,1.73,1.73,0,0,0,0,3.47,1.17,1.17,0,0,0,1-.49v.42h.73Zm-2.67,0a1,1,0,1,1,2,0,1,1,0,1,1-2,0Zm-8.7-1.73a1.73,1.73,0,0,0,0,3.47,2.12,2.12,0,0,0,1.35-.45l-.35-.52a1.66,1.66,0,0,1-1,.35.94.94,0,0,1-1-.8h2.46v-.28a1.53,1.53,0,0,0-1.53-1.77Zm0,.62a.81.81,0,0,1,.83.8H19.48a.88.88,0,0,1,.9-.8ZM38.44,29.6v-3h-.73v1.73a1.25,1.25,0,0,0-1-.49,1.73,1.73,0,0,0,0,3.47,1.17,1.17,0,0,0,1-.49v.42h.73Zm-2.67,0a1,1,0,1,1,2,0,1,1,0,1,1-2,0Zm-24.33,0V27.94h-.73v.42a1.25,1.25,0,0,0-1-.49,1.73,1.73,0,0,0,0,3.47,1.17,1.17,0,0,0,1-.49v.42h.73Zm-2.7,0a1,1,0,1,1,2,0,1,1,0,1,1-2,0Z"/><rect class="cls-2" x="14.73" y="2.67" width="10.92" height="19.62"/><path class="cls-3" d="M15.43,12.48a12.51,12.51,0,0,1,4.75-9.81A12.47,12.47,0,1,0,12.48,25a12.4,12.4,0,0,0,7.7-2.67A12.46,12.46,0,0,1,15.43,12.48Z"/><path class="cls-4" d="M40.38,12.48a12.47,12.47,0,0,1-20.18,9.81,12.51,12.51,0,0,0,0-19.62,12.47,12.47,0,0,1,20.18,9.81Z"/></g></g></svg>