<svg xmlns="http://www.w3.org/2000/svg" viewBox="0 0 62.7 19.22"><defs><style>.cls-1{fill:#fff;}.cls-1,.cls-2{fill-rule:evenodd;}.cls-2{fill:#faa61a;}</style></defs><title>visa-logo</title><g id="Layer_2" data-name="Layer 2"><g id="Layer_1-2" data-name="Layer 1"><polygon class="cls-1" points="22.07 18.94 25.26 0.31 30.35 0.31 27.16 18.94 22.07 18.94 22.07 18.94"/><path class="cls-1" d="M45.59.77A13.63,13.63,0,0,0,41,0c-5,0-8.56,2.52-8.58,6.14,0,2.67,2.52,4.16,4.45,5.06s2.65,1.49,2.62,2.31c0,1.26-1.57,1.82-3,1.82a10.68,10.68,0,0,1-4.78-1L31,14.06l-.69,4.16a15.59,15.59,0,0,0,5.65,1c5.35,0,8.79-2.49,8.84-6.37,0-2.11-1.34-3.73-4.27-5.06-1.77-.85-2.85-1.41-2.85-2.29s.93-1.62,2.9-1.62a9.16,9.16,0,0,1,3.8.72l.46.21.69-4Z"/><path class="cls-1" d="M58.62.33H54.69A2.56,2.56,0,0,0,52,1.88L44.48,19H49.8s.87-2.31,1.08-2.8h6.5c.15.64.62,2.8.62,2.8h4.7L58.62.33Zm-6.27,12,2-5.19c-.05.05.41-1.08.67-1.77L55.38,7l1.18,5.37Z"/><path class="cls-1" d="M17.83.33,12.85,13l-.51-2.57a14.59,14.59,0,0,0-7-7.81L9.84,18.94h5.37l8-18.61Z"/><path class="cls-2" d="M8.25.31H.05L0,.72C6.35,2.26,10.59,6,12.34,10.46L10.54,1.9A2.13,2.13,0,0,0,8.25.31Z"/></g></g></svg>